<svg xmlns="http://www.w3.org/2000/svg" width="137.812" height="30" viewBox="0 0 137.812 30">
  <defs>
    <style>
      .cls-1 {
        fill: #d22425;
        fill-rule: evenodd;
      }
    </style>
  </defs>
  <path id="logo.svg" class="cls-1" d="M373.147,94.972s3.675,0.364,3.675-5.485c0,0-.491,5.485,4.135,5.485h-7.81Zm28.024-29.964s-3.675-.365-3.675,5.485c0,0,.491-5.485-4.135-5.485h7.81ZM380.268,65l17,20.847V95L377.052,70.275V65h3.216Zm-13.093,0h10.337v5.26H367.175V65Zm-0.115,0A12.016,12.016,0,1,1,355,77.016,12.037,12.037,0,0,1,367.06,65Zm42.151,0s1.838,0.541,1.838,3.2V92.461s-0.253,2.517-1.838,2.517h8.959a2.594,2.594,0,0,1-1.378-2.474V68.2S416.528,65,418.4,65h-9.189ZM424.6,83.536s0.366-3.662-5.506-3.662c0,0,5.506.489,5.506-4.119v7.781ZM424.6,65s4.184,1.009,5.513,6.865V65H424.6Zm0,29.979s4.184-1.009,5.513-6.865v6.865H424.6ZM441.141,65a6.039,6.039,0,0,1,2.3,2.06C444.347,68.482,460.9,92.5,460.9,92.5s1.545,2.081-.46,2.474h9.648s-0.864-.266-3.445-3.89l-16.31-23.571S448.74,65,451.248,65H441.141Zm20.444,0h6.432a14.586,14.586,0,0,0-5.284,5.035S464.912,66.4,461.585,65ZM441.141,94.979h7.81s-4.163-1.385-.919-6.408C448.032,88.571,443.2,94.979,441.141,94.979ZM489.15,65V92.461s-0.253,2.517-1.838,2.517h8.959a2.594,2.594,0,0,1-1.378-2.474V65H489.15Zm-9.877,8.238s1.322-7.58,5.742-8.238h-6.2Zm25.268,0S503.219,65.658,498.8,65H505Z" transform="translate(-367.188 -65)"/>
</svg>
